<svg xmlns="http://www.w3.org/2000/svg" width="107" height="161" viewBox="0 0 107 161">
  <g id="Logo" transform="translate(-491 -167)">
    <g id="Grupo_32" data-name="Grupo 32">
      <rect id="Rectángulo_172" data-name="Rectángulo 172" width="92" height="148" rx="12" transform="translate(506 180)" fill="#48d1a2" opacity="0.26"/>
      <rect id="Rectángulo_171" data-name="Rectángulo 171" width="91" height="148" rx="12" transform="translate(500 172)" fill="#48d1a2" opacity="0.26"/>
      <path id="Sustracción_13" data-name="Sustracción 13" d="M-2379-585h-68a11.921,11.921,0,0,1-8.485-3.514A11.921,11.921,0,0,1-2459-597V-721a11.921,11.921,0,0,1,3.514-8.485A11.921,11.921,0,0,1-2447-733h28.854v60h17.64v-60H-2379a11.922,11.922,0,0,1,8.485,3.514A11.921,11.921,0,0,1-2367-721v124a11.921,11.921,0,0,1-3.514,8.485A11.922,11.922,0,0,1-2379-585Z" transform="translate(2950 900)" fill="#30d29a"/>
      <path id="Trazado_86" data-name="Trazado 86" d="M2969.252,1050.21l15.09,15.09,30.04-30.893" transform="translate(-2451 -788)" fill="none" stroke="#fff" stroke-width="9"/>
    </g>
  </g>
</svg>
